<?xml version="1.0" standalone="no"?>
<!DOCTYPE svg PUBLIC "-//W3C//DTD SVG 20010904//EN"
 "http://www.w3.org/TR/2001/REC-SVG-20010904/DTD/svg10.dtd">
<svg version="1.0" xmlns="http://www.w3.org/2000/svg"
 width="493.000000pt" height="506.000000pt" viewBox="0 0 493.000000 506.000000"
 preserveAspectRatio="xMidYMid meet">

<g transform="translate(0.000000,506.000000) scale(0.100000,-0.100000)"
fill="#000000" stroke="none">
<path d="M2185 4719 c-652 -57 -1232 -403 -1588 -949 -230 -353 -348 -781
-334 -1205 9 -254 43 -427 132 -659 237 -623 758 -1096 1410 -1280 194 -55
288 -68 517 -73 225 -5 338 6 533 54 93 22 343 112 417 149 553 278 948 741
1113 1304 45 154 62 249 76 434 39 502 -112 996 -437 1426 -168 223 -450 449
-729 584 -243 118 -505 192 -765 215 -130 12 -201 12 -345 0z m-20 -1188 c212
-55 372 -187 461 -376 26 -57 64 -174 64 -199 0 -3 -88 -6 -194 -6 l-195 0
-31 64 c-92 193 -316 259 -527 156 -139 -69 -217 -229 -229 -470 -17 -334 99
-561 316 -616 127 -32 267 0 357 81 49 43 103 135 103 174 0 21 5 21 200 21
119 0 200 -4 200 -9 0 -22 -54 -180 -78 -226 -100 -200 -261 -323 -487 -375
-82 -19 -114 -22 -223 -17 -148 6 -239 29 -352 88 -233 121 -380 342 -425 637
-19 127 -19 209 0 348 19 147 38 213 90 319 104 214 293 362 532 415 115 26
301 22 418 -9z m1363 -688 c-3 -623 -5 -682 -22 -733 -30 -93 -76 -166 -140
-228 -115 -110 -215 -142 -452 -142 l-144 0 2 178 3 177 110 5 c124 6 155 18
204 77 62 75 61 66 61 735 l0 608 190 0 191 0 -3 -677z"/>
</g>
</svg>
